HIERARCHY
ROOT Hips
{
	OFFSET 0.000000 0.000000 0.000000 
	CHANNELS 6 Xposition Yposition Zposition Zrotation Yrotation Xrotation
	JOINT LeftUpLeg
	{
		OFFSET 1.363060 -1.794630 0.839290 
		CHANNELS 3 Zrotation Yrotation Xrotation
		JOINT LeftLeg
		{
			OFFSET 2.448110 -6.726130 0.000000 
			CHANNELS 3 Zrotation Yrotation Xrotation
			JOINT LeftFoot
			{
				OFFSET 2.562200 -7.039590 0.000000 
				CHANNELS 3 Zrotation Yrotation Xrotation
				JOINT LeftToeBase
				{
					OFFSET 0.157640 -0.433110 2.322550 
					CHANNELS 3 Zrotation Yrotation Xrotation
					End Site
					{
						OFFSET 0.000000 0.000000 0.000000 
					}
				}
			}
		}
	}
	JOINT RightUpLeg
	{
		OFFSET -1.305520 -1.794630 0.839290 
		CHANNELS 3 Zrotation Yrotation Xrotation
		JOINT RightLeg
		{
			OFFSET -2.542530 -6.985550 0.000000 
			CHANNELS 3 Zrotation Yrotation Xrotation
			JOINT RightFoot
			{
				OFFSET -2.568260 -7.056230 0.000000 
				CHANNELS 3 Zrotation Yrotation Xrotation
				JOINT RightToeBase
				{
					OFFSET -0.164730 -0.452590 2.363150 
					CHANNELS 3 Zrotation Yrotation Xrotation
					End Site
					{
						OFFSET 0.000000 0.000000 0.000000 
					}
				}
			}
		}
	}
	JOINT Spine
	{
		OFFSET 0.028270 2.035590 -0.193380 
		CHANNELS 3 Zrotation Yrotation Xrotation
		JOINT Spine1
		{
			OFFSET 0.056720 2.048850 -0.042750 
			CHANNELS 3 Zrotation Yrotation Xrotation
			JOINT Neck1
			{
				OFFSET -0.054170 1.746240 0.172020 
				CHANNELS 3 Zrotation Yrotation Xrotation
				JOINT Head
				{
					OFFSET 0.104070 1.761360 -0.123970 
					CHANNELS 3 Zrotation Yrotation Xrotation
					End Site
					{
						OFFSET 0.000000 0.000000 0.000000 
					}
				}
			}
			JOINT LeftArm
			{
				OFFSET 3.362410 1.200890 -0.311210 
				CHANNELS 3 Zrotation Yrotation Xrotation
				JOINT LeftForeArm
				{
					OFFSET 4.983000 -0.000000 -0.000000 
					CHANNELS 3 Zrotation Yrotation Xrotation
					JOINT LeftHand
					{
						OFFSET 3.483560 -0.000000 -0.000000 
						CHANNELS 3 Zrotation Yrotation Xrotation
						JOINT LeftHandIndex1
						{
							OFFSET 0.715260 -0.000000 -0.000000 
							CHANNELS 3 Zrotation Yrotation Xrotation
							End Site
							{
								OFFSET 0.000000 0.000000 0.000000 
							}
						}
					}
				}
			}
			JOINT RightArm
			{
				OFFSET -3.136600 1.374050 -0.404650 
				CHANNELS 3 Zrotation Yrotation Xrotation
				JOINT RightForeArm
				{
					OFFSET -5.241900 -0.000000 -0.000000 
					CHANNELS 3 Zrotation Yrotation Xrotation
					JOINT RightHand
					{
						OFFSET -3.444170 -0.000000 -0.000000 
						CHANNELS 3 Zrotation Yrotation Xrotation
						JOINT RightHandIndex1
						{
							OFFSET -0.622530 -0.000000 -0.000000 
							CHANNELS 3 Zrotation Yrotation Xrotation
							End Site
							{
								OFFSET 0.000000 0.000000 0.000000 
							}
						}
					}
				}
			}
		}
	}
}
MOTION
Frames: 10
Frame Time: 0.041667
-0.046944 18.188309 0.303069 -6.888881 -1.799811 14.495346 -7.930930 -10.405939 -23.974615 0.213698 7.218727 23.707243 -1.429535 6.503871 4.324360 1.248700 -7.084900 -19.967000 22.991064 18.875356 -19.149732 0.617119 -4.326049 18.096620 1.897757 -8.500082 0.920382 -1.139100 6.777700 -19.058600 18.825740 1.778679 1.192521 2.040173 1.644880 -7.201552 -5.352428 -1.152985 5.070562 -2.918500 -0.647100 2.107800 -27.446529 7.046639 114.448917 124.774908 -54.744669 -88.925450 0.596369 1.490161 -30.570159 -7.125000 0.000000 0.000000 59.744899 -12.310871 -15.619842 -52.783070 50.734560 -23.156615 -1.116452 1.387354 28.495063 7.125000 0.000000 0.000000 
-0.038464 18.180333 0.302161 -6.907080 -1.771347 14.456349 -7.972318 -10.306201 -24.114805 0.251160 7.288872 23.915834 -1.371148 6.310207 4.218462 1.290600 -7.198400 -20.304300 23.024414 18.720517 -19.329704 0.578972 -4.409960 18.329839 1.833361 -8.212067 0.893681 -1.086000 6.623200 -18.603900 18.809076 1.686883 1.474321 2.095593 1.630140 -7.161409 -5.374973 -1.119242 4.880696 -2.925100 -0.634700 2.083300 -27.315975 6.923485 114.410032 124.663685 -54.770741 -88.824545 0.656688 1.465205 -30.349446 -7.125000 0.000000 0.000000 59.118875 -12.284398 -15.499425 -52.714329 50.689346 -23.076470 -1.043713 1.356152 27.992229 7.125000 0.000000 0.000000 
-0.030186 18.173771 0.301959 -6.956157 -1.738734 14.375817 -7.969170 -10.205650 -24.216006 0.292606 7.367369 24.148915 -1.277712 6.001984 4.085798 1.219200 -7.003700 -19.726300 23.111377 18.550116 -19.397452 0.555220 -4.455940 18.472716 1.781780 -7.973657 0.885994 -1.091300 6.639000 -18.650100 18.717059 1.622984 1.657792 2.090314 1.615399 -7.212613 -5.303780 -1.101650 4.899031 -2.911600 -0.626400 2.113600 -27.082287 6.820279 114.382116 124.636203 -54.769594 -88.800937 0.670399 1.428168 -30.350419 -7.125000 0.000000 0.000000 58.443192 -12.356767 -15.314981 -52.602794 50.628231 -22.963009 -0.972047 1.318138 27.294159 7.125000 0.000000 0.000000 
-0.021806 18.167512 0.302060 -7.049710 -1.706317 14.345278 -7.928523 -10.100745 -24.345268 0.332966 7.449563 24.369657 -1.205240 5.770972 4.004386 1.186800 -6.913300 -19.458800 23.255578 18.376896 -19.499791 0.527232 -4.511358 18.636411 1.741679 -7.793902 0.919735 -1.177200 6.886400 -19.379100 18.616248 1.629279 1.628658 2.039112 1.609692 -7.275966 -5.282168 -1.113255 4.921468 -2.915900 -0.631300 2.123900 -26.781314 6.699228 114.411055 124.680564 -54.744757 -88.844564 0.644011 1.388019 -30.625005 -7.125000 0.000000 0.000000 57.810487 -12.530666 -15.313021 -52.493924 50.568794 -22.853907 -0.901864 1.283376 26.652945 7.125000 0.000000 0.000000 
-0.011206 18.161858 0.302767 -7.063682 -1.688296 14.351162 -7.991917 -9.943346 -24.517729 0.370317 7.528421 24.582117 -1.147476 5.588146 3.948392 1.221600 -7.010500 -19.746500 23.284132 18.207349 -19.629675 0.507014 -4.559739 18.761629 1.700922 -7.610712 0.954721 -1.184500 6.907000 -19.440200 18.471646 1.647717 1.509311 2.015856 1.604041 -7.336884 -5.311795 -1.123276 4.926076 -2.932400 -0.636100 2.124900 -26.467889 6.638438 114.371716 124.683961 -54.733744 -88.856764 0.612521 1.334364 -30.896382 -7.125000 0.000000 0.000000 57.128969 -12.782859 -15.311328 -52.415202 50.524366 -22.774436 -0.834534 1.258661 26.049730 7.125000 0.000000 0.000000 
-0.000202 18.155397 0.303170 -7.107881 -1.661333 14.377589 -8.015400 -9.806095 -24.678346 0.399419 7.592964 24.751624 -1.068263 5.335187 3.912727 1.181700 -6.899200 -19.417000 23.327248 18.067361 -19.776761 0.486981 -4.608073 18.884735 1.659475 -7.426057 0.985916 -1.119200 6.720400 -18.889700 18.441409 1.622562 1.375573 2.007742 1.577305 -7.388916 -5.280249 -1.076964 4.992245 -2.924400 -0.611700 2.147000 -26.188310 6.646419 114.272585 124.627171 -54.740636 -88.820571 0.574728 1.280205 -31.004760 -7.125000 0.000000 0.000000 56.315734 -12.975247 -15.288603 -52.238036 50.443151 -22.624446 -0.768004 1.239677 25.578461 7.125000 0.000000 0.000000 
0.010096 18.150349 0.306300 -7.180063 -1.606271 14.370434 -7.996303 -9.707012 -24.770171 0.418120 7.632655 24.855569 -1.000613 5.117990 3.929243 1.177400 -6.886800 -19.380500 23.409728 17.908925 -19.885931 0.464295 -4.659822 19.030162 1.621545 -7.258152 0.930183 -1.063400 6.556100 -18.406700 18.475193 1.571979 1.387388 2.002475 1.550991 -7.404001 -5.245587 -1.037608 5.170713 -2.913800 -0.591600 2.216900 -25.875009 6.565872 114.116524 124.619597 -54.725164 -88.827834 0.538374 1.224537 -31.101201 -7.125000 0.000000 0.000000 55.460505 -13.037775 -15.551690 -52.121873 50.390235 -22.522417 -0.688835 1.218984 25.261654 7.125000 0.000000 0.000000 
0.019585 18.148936 0.310742 -7.078090 -1.592012 14.337087 -8.147385 -9.640306 -24.801695 0.433466 7.654777 24.945265 -0.978478 5.037050 3.921093 1.249900 -7.088200 -19.977100 23.292647 17.756048 -19.976064 0.446932 -4.707838 19.148666 1.579052 -7.062927 0.903892 -1.072000 6.581700 -18.481800 18.327845 1.513802 1.442764 2.070870 1.531775 -7.449293 -5.244081 -0.997569 5.473836 -2.920300 -0.570900 2.336500 -25.519773 6.500640 113.860726 124.519803 -54.728345 -88.780909 0.448355 1.131529 -31.198758 -7.125000 0.000000 0.000000 54.561975 -13.103532 -15.810186 -52.031338 50.350327 -22.442461 -0.612259 1.190133 24.836642 7.125000 0.000000 0.000000 
0.031397 18.148229 0.314881 -6.939949 -1.502623 14.277043 -8.312283 -9.655453 -24.785738 0.447812 7.671038 25.035050 -0.936698 4.884716 3.846632 1.257300 -7.108400 -20.036900 23.134452 17.542366 -20.031359 0.439989 -4.738509 19.215681 1.538323 -6.873756 0.856238 -1.046800 6.506200 -18.260500 18.061682 1.459624 1.453920 2.081905 1.506181 -7.530526 -5.137430 -0.988362 5.757445 -2.893300 -0.563100 2.440200 -25.090705 6.394423 113.551437 124.289833 -54.757994 -88.650778 0.292743 1.013967 -31.277220 -7.125000 0.000000 0.000000 53.623206 -13.274269 -16.045846 -51.826783 50.261469 -22.273119 -0.547318 1.160207 24.280214 7.125000 0.000000 0.000000 
0.043512 18.146109 0.317607 -6.898359 -1.377442 14.290935 -8.380967 -9.627823 -24.872911 0.457982 7.694452 25.105794 -0.863005 4.639398 3.847756 1.219400 -7.004400 -19.728400 23.087391 17.338532 -20.119343 0.437006 -4.756300 19.248807 1.511564 -6.750378 0.875263 -1.090700 6.637100 -18.644700 17.843620 1.423911 1.386525 2.028942 1.476059 -7.560567 -4.962994 -0.985916 5.950077 -2.840100 -0.557700 2.506300 -24.497950 6.211557 113.267751 124.200123 -54.752510 -88.611167 0.207385 0.921062 -31.400021 -7.125000 0.000000 0.000000 52.669171 -13.438522 -16.420160 -51.611793 50.170611 -22.101070 -0.473196 1.143270 23.658026 7.125000 0.000000 0.000000 
